# xmcd CD database file
#
# Track frame offsets:
#	150
#	18780
#	38161
#	57903
#	75457
#	95265
#	111549
#	130253
#	143243
#	177960
#	201213
#	222003
#	242826
#	261714
#
# Disc length: 3698 seconds
#
# Revision: 2
# Processed by: cddbd v1.5.2PL0 Copyright (c) Steve Scherf et al.
# Submitted via: CDex 1.51
#
DISCID=c70e700e
DTITLE=Billy C Farlow and Bleu Jackson - Good Whiskey
DYEAR=2004
DGENRE=Blues
TTITLE0=Poison Love
TTITLE1=Go Get Your Monkey
TTITLE2=Hard Place To Be
TTITLE3=Good Whiskey
TTITLE4=What Have I Done
TTITLE5=Move It
TTITLE6=Alabama
TTITLE7=Shady Muscadine
TTITLE8=Flood In Mississippi
TTITLE9=No More Time In The World
TTITLE10=Lions In The Jungle
TTITLE11=Indevilment
TTITLE12=Down At The Levee
TTITLE13=Set 'Em Up
EXTD=TAXIM RECORDS YEAR: 2004
EXTT0=
EXTT1=
EXTT2=
EXTT3=
EXTT4=
EXTT5=
EXTT6=
EXTT7=
EXTT8=
EXTT9=
EXTT10=
EXTT11=
EXTT12=
EXTT13=
PLAYORDER=
